<svg width="32" height="32" viewBox="0 0 32 32" fill="none" xmlns="http://www.w3.org/2000/svg">
<path fill-rule="evenodd" clip-rule="evenodd" d="M7.71743 18.6932C7.77472 18.7122 7.83363 18.7261 7.89343 18.7345C8.27066 19.6234 8.64577 20.5131 9.01876 21.4038C9.68943 23.0065 10.3654 24.6572 10.5134 25.1318C10.6988 25.7158 10.8934 26.1132 11.1068 26.3852C11.2174 26.5238 11.3441 26.6465 11.4934 26.7398C11.5712 26.7885 11.6545 26.8279 11.7414 26.8572C12.1681 27.0172 12.5574 26.9505 12.8014 26.8692C12.9446 26.8203 13.0809 26.7531 13.2068 26.6692L13.2134 26.6665L16.9814 24.3172L21.3348 27.6532C21.3988 27.7025 21.4681 27.7438 21.5428 27.7772C22.0654 28.0038 22.5721 28.0838 23.0494 28.0198C23.5241 27.9532 23.9014 27.7545 24.1828 27.5292C24.5058 27.2688 24.7634 26.9363 24.9348 26.5585L24.9468 26.5292L24.9508 26.5185L24.9534 26.5132V26.5105L24.9548 26.5092C24.9779 26.4518 24.9958 26.3924 25.0081 26.3318L28.9814 6.29849C28.994 6.23436 29.0002 6.16916 29.0001 6.10382C29.0001 5.51715 28.7788 4.95849 28.2601 4.62115C27.8148 4.33182 27.3201 4.31849 27.0068 4.34249C26.6708 4.36915 26.3588 4.45182 26.1494 4.51849C26.0322 4.55563 25.9166 4.59744 25.8028 4.64382L25.7881 4.65049L3.50276 13.3918L3.50009 13.3932C3.42469 13.4209 3.35041 13.4516 3.27743 13.4852C3.10071 13.5646 2.93119 13.6592 2.77076 13.7678C2.46809 13.9745 1.77076 14.5425 1.88943 15.4812C1.98276 16.2278 2.49476 16.6878 2.80809 16.9092C2.97876 17.0305 3.14143 17.1172 3.26143 17.1745C3.31476 17.2012 3.42943 17.2465 3.47876 17.2678L3.49209 17.2718L7.71743 18.6932ZM26.5681 6.49049H26.5654C26.554 6.49558 26.5424 6.50047 26.5308 6.50515L4.21876 15.2585C4.20728 15.2631 4.19572 15.2676 4.18409 15.2718L4.17076 15.2758C4.13 15.2918 4.08996 15.3096 4.05076 15.3292C4.08787 15.3504 4.12615 15.3696 4.16543 15.3865L8.35476 16.7972C8.42962 16.8224 8.50123 16.8564 8.56809 16.8985L22.4041 8.79849L22.4174 8.79182C22.4712 8.75916 22.5263 8.72891 22.5828 8.70115C22.6788 8.65182 22.8321 8.57982 23.0054 8.52649C23.1254 8.48915 23.4814 8.38382 23.8654 8.50782C24.0691 8.57202 24.2506 8.6922 24.3893 8.85465C24.5279 9.01709 24.618 9.21525 24.6494 9.42649C24.6991 9.61149 24.7005 9.80613 24.6534 9.99182C24.5601 10.3585 24.3041 10.6438 24.0694 10.8625C23.8694 11.0492 21.2761 13.5505 18.7174 16.0198L15.2334 19.3798L14.6134 19.9798L22.4428 25.9825C22.5484 26.0268 22.6632 26.0451 22.7774 26.0358C22.835 26.028 22.8891 26.004 22.9334 25.9665C22.9875 25.9209 23.0339 25.8668 23.0708 25.8065L23.0734 25.8052L26.9268 6.37449C26.8054 6.40368 26.6864 6.44201 26.5708 6.48915L26.5681 6.49049ZM15.2868 23.0158L13.7241 21.8185L13.3454 24.2252L15.2868 23.0158ZM12.2908 19.4425L13.8441 17.9425L17.3281 14.5798L18.6254 13.3292L9.93209 18.4185L9.97876 18.5278C10.527 19.8231 11.0693 21.1209 11.6054 22.4212L11.9828 20.0212C12.0169 19.7986 12.1255 19.5954 12.2908 19.4425Z" fill="white" fill-opacity="0.5"/>
</svg>
