<svg width="32" height="32" viewBox="0 0 32 32" fill="none" xmlns="http://www.w3.org/2000/svg">
<path d="M20.4669 7.39983C19.4537 7.39965 18.481 7.79713 17.7579 8.50677C17.0348 9.21642 16.6191 10.1815 16.6002 11.1945L16.5629 13.2945C16.5609 13.4074 16.535 13.5185 16.487 13.6207C16.439 13.7228 16.3699 13.8137 16.2842 13.8872C16.1986 13.9608 16.0984 14.0154 15.9901 14.0474C15.8819 14.0795 15.7681 14.0882 15.6562 14.0732L13.5736 13.7892C10.8362 13.4158 8.21222 12.1558 5.69356 10.0585C4.89756 14.4718 6.45356 17.5292 10.2042 19.8878L12.5336 21.3518C12.644 21.4213 12.7358 21.5168 12.801 21.6299C12.8661 21.743 12.9025 21.8704 12.9071 22.0008C12.9117 22.1312 12.8843 22.2608 12.8274 22.3783C12.7704 22.4957 12.6855 22.5974 12.5802 22.6745L10.4576 24.2265C11.7202 24.3065 12.9189 24.2505 13.9136 24.0532C20.2042 22.7972 24.3869 18.0638 24.3869 10.2558C24.3869 9.61849 23.0362 7.39983 20.4669 7.39983ZM13.9336 11.1465C13.9568 9.86123 14.3587 8.61139 15.089 7.55346C15.8192 6.49553 16.8453 5.67652 18.0388 5.19898C19.2323 4.72145 20.5401 4.6066 21.7985 4.86882C23.057 5.13105 24.2101 5.75869 25.1136 6.67316C26.0616 6.66649 26.8682 6.90649 28.6709 5.81183C28.2256 7.99849 28.0042 8.94916 27.0536 10.2545C27.0536 20.4425 20.7909 25.3985 14.4349 26.6665C10.0789 27.5358 3.74156 26.1078 1.92822 24.2105C2.85222 24.1398 6.61222 23.7358 8.78556 22.1438C6.94556 20.9305 -0.371777 16.6238 4.43756 5.04783C6.69489 7.68383 8.98422 9.47716 11.3042 10.4305C12.8469 11.0638 13.2269 11.0505 13.9349 11.1478L13.9336 11.1465Z" fill="white" fill-opacity="0.5"/>
</svg>
