<svg width="32" height="32" viewBox="0 0 32 32" fill="none" xmlns="http://www.w3.org/2000/svg">
<path d="M23.1198 7.27984C22.8034 7.27984 22.494 7.37368 22.2309 7.54949C21.9678 7.7253 21.7627 7.97518 21.6416 8.26754C21.5205 8.55991 21.4888 8.88161 21.5506 9.19198C21.6123 9.50235 21.7647 9.78744 21.9885 10.0112C22.2122 10.235 22.4973 10.3874 22.8077 10.4491C23.1181 10.5108 23.4398 10.4791 23.7321 10.358C24.0245 10.2369 24.2744 10.0319 24.4502 9.76875C24.626 9.50563 24.7198 9.19629 24.7198 8.87984C24.7198 8.45549 24.5513 8.04852 24.2512 7.74847C23.9511 7.44841 23.5442 7.27984 23.1198 7.27984ZM29.2532 10.5065C29.2272 9.40023 29.02 8.30571 28.6398 7.2665C28.3008 6.37735 27.7731 5.57221 27.0932 4.9065C26.4329 4.22307 25.6259 3.69874 24.7332 3.37317C23.6967 2.98138 22.601 2.76945 21.4932 2.7465C20.0798 2.6665 19.6265 2.6665 15.9998 2.6665C12.3732 2.6665 11.9198 2.6665 10.5065 2.7465C9.39871 2.76945 8.30296 2.98138 7.2665 3.37317C6.37541 3.70204 5.56908 4.22592 4.9065 4.9065C4.22307 5.56674 3.69874 6.37376 3.37317 7.2665C2.98138 8.30296 2.76945 9.39871 2.7465 10.5065C2.6665 11.9198 2.6665 12.3732 2.6665 15.9998C2.6665 19.6265 2.6665 20.0798 2.7465 21.4932C2.76945 22.601 2.98138 23.6967 3.37317 24.7332C3.69874 25.6259 4.22307 26.4329 4.9065 27.0932C5.56908 27.7738 6.37541 28.2976 7.2665 28.6265C8.30296 29.0183 9.39871 29.2302 10.5065 29.2532C11.9198 29.3332 12.3732 29.3332 15.9998 29.3332C19.6265 29.3332 20.0798 29.3332 21.4932 29.2532C22.601 29.2302 23.6967 29.0183 24.7332 28.6265C25.6259 28.3009 26.4329 27.7766 27.0932 27.0932C27.7762 26.4299 28.3043 25.6241 28.6398 24.7332C29.02 23.694 29.2272 22.5994 29.2532 21.4932C29.2532 20.0798 29.3332 19.6265 29.3332 15.9998C29.3332 12.3732 29.3332 11.9198 29.2532 10.5065ZM26.8532 21.3332C26.8435 22.1795 26.6902 23.0181 26.3998 23.8132C26.1869 24.3934 25.845 24.9177 25.3998 25.3465C24.9674 25.7872 24.4441 26.1284 23.8665 26.3465C23.0714 26.6368 22.2329 26.7901 21.3865 26.7998C20.0532 26.8665 19.5598 26.8798 16.0532 26.8798C12.5465 26.8798 12.0532 26.8798 10.7198 26.7998C9.84102 26.8163 8.96596 26.681 8.13317 26.3998C7.58088 26.1706 7.08165 25.8302 6.6665 25.3998C6.22396 24.9715 5.88629 24.4468 5.67984 23.8665C5.35431 23.06 5.17376 22.2024 5.1465 21.3332C5.1465 19.9998 5.0665 19.5065 5.0665 15.9998C5.0665 12.4932 5.0665 11.9998 5.1465 10.6665C5.15248 9.80124 5.31044 8.94376 5.61317 8.13317C5.8479 7.57038 6.20819 7.06871 6.6665 6.6665C7.07159 6.20806 7.57222 5.84396 8.13317 5.59984C8.9459 5.30656 9.8025 5.15328 10.6665 5.1465C11.9998 5.1465 12.4932 5.0665 15.9998 5.0665C19.5065 5.0665 19.9998 5.0665 21.3332 5.1465C22.1795 5.15621 23.0181 5.3095 23.8132 5.59984C24.4191 5.82471 24.9629 6.1903 25.3998 6.6665C25.8368 7.07607 26.1782 7.57681 26.3998 8.13317C26.6962 8.94508 26.8496 9.80221 26.8532 10.6665C26.9198 11.9998 26.9332 12.4932 26.9332 15.9998C26.9332 19.5065 26.9198 19.9998 26.8532 21.3332ZM15.9998 9.15984C14.6476 9.16247 13.3265 9.56587 12.2034 10.3191C11.0803 11.0723 10.2057 12.1414 9.69002 13.3915C9.17436 14.6416 9.0408 16.0165 9.30623 17.3424C9.57166 18.6684 10.2242 19.8859 11.1813 20.8411C12.1384 21.7964 13.3572 22.4465 14.6836 22.7094C16.0101 22.9722 17.3847 22.836 18.6338 22.3179C19.8829 21.7998 20.9503 20.9231 21.7013 19.7985C22.4523 18.674 22.8532 17.3521 22.8532 15.9998C22.8549 15.1 22.6788 14.2086 22.3348 13.3771C21.9909 12.5456 21.4859 11.7902 20.849 11.1546C20.2121 10.5189 19.4558 10.0154 18.6236 9.67308C17.7914 9.33074 16.8997 9.15632 15.9998 9.15984ZM15.9998 20.4398C15.1217 20.4398 14.2633 20.1794 13.5331 19.6916C12.8029 19.2037 12.2339 18.5103 11.8978 17.699C11.5618 16.8876 11.4738 15.9949 11.6452 15.1336C11.8165 14.2724 12.2393 13.4812 12.8603 12.8603C13.4812 12.2393 14.2724 11.8165 15.1336 11.6452C15.9949 11.4738 16.8876 11.5618 17.699 11.8978C18.5103 12.2339 19.2037 12.8029 19.6916 13.5331C20.1794 14.2633 20.4398 15.1217 20.4398 15.9998C20.4398 16.5829 20.325 17.1603 20.1019 17.699C19.8787 18.2376 19.5517 18.7271 19.1394 19.1394C18.7271 19.5517 18.2376 19.8787 17.699 20.1019C17.1603 20.325 16.5829 20.4398 15.9998 20.4398Z" fill="white" fill-opacity="0.5"/>
</svg>
