<svg width="369" height="324" viewBox="0 0 369 324" fill="none" xmlns="http://www.w3.org/2000/svg">
<path d="M-359.867 565.208C-349.325 553.346 -276.545 602.704 -265.998 590.835C-255.451 578.966 -328.237 529.614 -317.69 517.745C-307.143 505.877 -234.369 555.241 -223.822 543.372C-213.275 531.503 -286.06 482.152 -275.513 470.283C-264.966 458.414 -192.192 507.778 -181.645 495.91C-171.098 484.041 -243.883 434.689 -233.336 422.82C-222.789 410.951 -150.015 460.316 -139.468 448.447C-128.921 436.578 -201.706 387.226 -191.165 375.364C-180.624 363.501 -107.838 412.853 -97.2742 400.965C-86.7102 389.077 -159.513 339.745 -148.971 327.882C-138.43 316.02 -65.6387 365.365 -55.12 353.528C-44.6012 341.691 -117.358 292.307 -106.783 280.407C-96.2079 268.506 -23.4619 317.902 -12.9205 306.04C-2.37916 294.178 -75.1534 244.813 -64.612 232.951C-54.0706 221.088 18.7092 270.446 29.2563 258.577C39.8033 246.709 -32.9822 197.357 -22.4409 185.494C-11.8995 173.632 60.8861 222.984 71.4331 211.115C81.9801 199.246 9.19458 149.894 19.7416 138.025C30.2886 126.157 103.063 175.521 113.61 163.652C124.157 151.783 51.3714 102.432 61.9184 90.5627C72.4655 78.6939 145.24 128.058 155.787 116.19C166.334 104.321 93.5483 54.9689 104.095 43.1001C114.642 31.2312 187.417 80.5957 197.964 68.7269C208.511 56.8581 135.731 7.49995 146.272 -4.36252C156.813 -16.225 229.599 33.1267 240.14 21.2643C250.682 9.40178 177.908 -39.9627 188.449 -51.8251C198.99 -63.6876 271.776 -14.3359 282.323 -26.2047C292.87 -38.0735 220.084 -87.4253 230.631 -99.2941C241.178 -111.163 313.958 -61.8048 324.5 -73.6673C335.041 -85.5298 262.267 -134.894 272.814 -146.763C283.361 -158.632 356.141 -109.274 366.688 -121.143C377.235 -133.012 304.455 -182.37 314.996 -194.232" stroke="white" stroke-opacity="0.2" stroke-miterlimit="10"/>
</svg>
