<svg width="28" height="22" viewBox="0 0 28 22" fill="none" xmlns="http://www.w3.org/2000/svg">
<path d="M23.6933 2.10689C21.92 1.28022 20 0.680224 18 0.333557C17.9825 0.332997 17.965 0.336287 17.9489 0.343198C17.9328 0.350109 17.9183 0.360473 17.9067 0.373558C17.6667 0.813558 17.3867 1.38689 17.2 1.82689C15.0787 1.50689 12.9213 1.50689 10.8 1.82689C10.6133 1.37356 10.3333 0.813558 10.08 0.373558C10.0667 0.346891 10.0267 0.333557 9.98666 0.333557C7.98666 0.680224 6.07999 1.28022 4.29333 2.10689C4.27999 2.10689 4.26666 2.12022 4.25333 2.13356C0.62666 7.56022 -0.37334 12.8402 0.119994 18.0669C0.119994 18.0936 0.133327 18.1202 0.159993 18.1336C2.55999 19.8936 4.86666 20.9602 7.14666 21.6669C7.18666 21.6802 7.22666 21.6669 7.23999 21.6402C7.77333 20.9069 8.25333 20.1336 8.66666 19.3202C8.69333 19.2669 8.66666 19.2136 8.61333 19.2002C7.85333 18.9069 7.13333 18.5602 6.42666 18.1602C6.37333 18.1336 6.37333 18.0536 6.41333 18.0136C6.55999 17.9069 6.70666 17.7869 6.85333 17.6802C6.87999 17.6536 6.91999 17.6536 6.94666 17.6669C11.5333 19.7602 16.48 19.7602 21.0133 17.6669C21.04 17.6536 21.08 17.6536 21.1067 17.6802C21.2533 17.8002 21.4 17.9069 21.5467 18.0269C21.6 18.0669 21.6 18.1469 21.5333 18.1736C20.84 18.5869 20.1067 18.9202 19.3467 19.2136C19.2933 19.2269 19.28 19.2936 19.2933 19.3336C19.72 20.1469 20.2 20.9202 20.72 21.6536C20.76 21.6669 20.8 21.6802 20.84 21.6669C23.1333 20.9602 25.44 19.8936 27.84 18.1336C27.8667 18.1202 27.88 18.0936 27.88 18.0669C28.4667 12.0269 26.9067 6.78689 23.7467 2.13356C23.7333 2.12022 23.72 2.10689 23.6933 2.10689ZM9.35999 14.8802C7.98666 14.8802 6.83999 13.6136 6.83999 12.0536C6.83999 10.4936 7.95999 9.22689 9.35999 9.22689C10.7733 9.22689 11.8933 10.5069 11.88 12.0536C11.88 13.6136 10.76 14.8802 9.35999 14.8802ZM18.6533 14.8802C17.28 14.8802 16.1333 13.6136 16.1333 12.0536C16.1333 10.4936 17.2533 9.22689 18.6533 9.22689C20.0667 9.22689 21.1867 10.5069 21.1733 12.0536C21.1733 13.6136 20.0667 14.8802 18.6533 14.8802Z" fill="white"/>
</svg>
